<?xml version="1.0" encoding="UTF-8" standalone="no"?>
<svg width="874px" height="1000px" viewBox="0 0 874 1000" version="1.1" xmlns="http://www.w3.org/2000/svg" xmlns:xlink="http://www.w3.org/1999/xlink" xmlns:sketch="http://www.bohemiancoding.com/sketch/ns">
    <title>logo</title>
    <description>Created with Sketch (http://www.bohemiancoding.com/sketch)</description>
    <defs></defs>
    <g id="Page-1" stroke="none" stroke-width="1" fill="none" fill-rule="evenodd" sketch:type="MSPage">
        <g id="Logo" sketch:type="MSLayerGroup">
            <path d="M770.869635,860 C780.998933,851.412873 795.315851,848.869702 808.115745,851.821036 C819.050962,854.160126 828.089899,861.036107 836.196499,868.33595 C833.952567,862.464678 831.645425,856.609105 829.433098,850.722135 C844.239888,851.77394 859.030877,853.249608 873.869272,854.11303 L873.869272,855.180534 C869.334001,858.33595 864.514288,861.036107 859.710377,863.736264 C862.870845,874.489796 866.078719,885.274725 867.611546,896.405024 C862.997263,898.697017 855.570165,900.863422 856.312874,907.346939 C855.870409,913.767661 861.590855,917.770801 866.315754,920.941915 C861.938507,925.463108 856.881759,931.365777 858.493597,938.084772 C860.863948,943.767661 867.674755,943.171115 872.77891,943.375196 C871.167072,955.102041 868.92314,967.252747 861.922704,977.142857 C853.879314,988.916797 840.478932,996.734694 826.241026,998.147567 C812.793237,999.215071 798.950389,998.822606 786.071484,994.505495 C781.077945,992.982732 776.353046,990.565149 771.185682,989.764521 C765.733875,991.915228 761.783291,996.530612 757.18481,1000 L755.683588,1000 C763.031675,985.745683 768.13583,970.392465 776.937732,956.89168 C787.067031,966.499215 799.045203,976.546311 813.851993,976.640502 C826.351642,977.080063 836.939209,967.268446 840.589548,955.918367 C844.097667,947.158556 841.553491,937.692308 838.993512,929.058085 C832.672577,936.373626 826.493863,944.238619 817.928996,949.120879 C803.090601,956.844584 783.685331,956.310832 770.174332,946.043956 C758.496404,936.923077 751.527574,922.182104 751.985841,907.425432 C750.990294,889.968603 757.169008,871.459969 770.869635,860 C770.869635,860 757.169008,871.459969 770.869635,860 Z M807.531058,872.543171 C818.877137,877.912088 827.204969,887.755102 833.478497,898.33595 C830.096796,901.22449 826.525468,904.756672 821.67415,904.411303 C812.730027,905.102041 805.713789,897.095761 803.548869,889.167975 C801.447158,883.312402 805.350336,877.739403 807.531058,872.543171 C807.531058,872.543171 805.350336,877.739403 807.531058,872.543171 Z" id="g" fill="#005DF8" sketch:type="MSShapeGroup"></path>
            <path d="M566.339979,815.384615 C574.509787,814.207221 582.806015,814.788069 591.054835,814.66248 C599.366864,814.474097 607.994941,816.153846 615.042783,820.706436 C618.851147,823.516484 623.101976,829.026688 619.578054,833.626374 C612.830456,844.050235 598.971806,844.740973 587.767949,846.012559 C576.058416,846.232339 563.527163,845.572998 553.03441,839.905808 C548.483337,837.158556 542.747089,831.130298 546.634464,825.714286 C550.537641,818.728414 559.055101,816.78179 566.339979,815.384615 C566.339979,815.384615 559.055101,816.78179 566.339979,815.384615 Z M282.798634,868.084772 C290.936838,856.153846 305.980664,849.058085 320.424,851.193093 C326.902959,852.291994 333.445127,854.175824 338.881131,858.006279 C344.82281,862.087912 349.468697,867.676609 354.209398,873.029827 C352.629164,865.5573 351.206954,858.053375 349.595116,850.580848 C364.243883,851.648352 378.861045,853.375196 393.4308,855.321821 C392.419451,856.514914 391.408101,857.708006 390.412554,858.916797 C416.849865,855.5573 443.476804,853.814757 469.993126,850.989011 C465.031192,855.572998 459.310746,859.246468 453.290055,862.307692 C453.843137,869.968603 455.391766,877.519623 457.098419,885.007849 C459.421362,895.22763 460.290491,905.761381 463.450958,915.808477 C470.103742,900.298273 475.634561,884.317111 482.018705,868.681319 C478.068121,865.651491 474.164943,862.55887 470.482999,859.215071 C482.113519,856.970173 493.933668,857.080063 505.722212,857.048666 C516.262371,856.169545 526.818332,855.321821 537.358491,854.254317 C550.174187,853.312402 563.1005,854.992151 575.868788,853.139717 C589.585217,851.318681 603.491275,853.563579 617.207704,851.711146 C621.44273,851.1146 625.725164,850.957614 630.007597,851.00471 C626.151827,855.102041 620.43138,856.091052 615.295621,857.723705 C609.654186,859.372057 604.218182,861.601256 598.813783,863.877551 C602.92239,891.255887 606.63594,918.66562 610.396896,946.075353 C616.006726,947.755102 621.411125,950.32967 627.25799,951.161695 C631.145365,949.607535 634.35324,945.99686 635.269776,941.899529 C637.750743,932.66876 636.391741,923.061224 637.023835,913.657771 C638.999127,898.100471 637.987778,882.386185 640.215907,866.860283 C634.542868,864.065934 628.996247,861.036107 623.591848,857.786499 C641.053431,854.976452 658.720445,853.155416 676.387458,852.276295 C673.147979,858.681319 669.987511,865.133438 666.842846,871.585557 C675.391911,863.971743 684.904918,857.142857 696.045566,853.830455 C697.720614,858.414443 698.605545,863.861852 702.793164,866.954474 C708.640029,871.083203 716.240954,871.240188 723.051761,870.078493 C724.821623,876.766091 726.496671,885.416013 733.86056,888.178964 C737.937563,889.764521 741.208647,885.855573 744.384917,883.956044 C744.290103,892.354788 744.858987,900.879121 742.962707,909.136578 C740.41853,922.213501 733.560316,933.846154 726.749508,945.117739 C732.786001,947.676609 738.980517,949.874411 745.08022,952.323391 C737.03683,956.373626 727.792462,953.532182 719.243398,954.882261 C709.224716,956.326531 699.095417,956.200942 689.013526,956.043956 C694.860391,948.367347 700.596639,939.450549 700.122569,929.434851 C699.632697,923.029827 697.120125,916.138148 691.510295,912.496075 C684.98393,910.533752 677.272389,912.919937 673.748468,918.916797 C670.682814,924.505495 669.070976,931.381476 671.12528,937.598116 C672.500083,942.982732 675.470922,947.755102 678.220529,952.55887 C663.745588,953.547881 649.349658,955.431711 634.969531,957.394035 C628.506375,958.649922 622.706917,954.756672 616.385982,954.4427 C608.295185,954.00314 600.172784,954.474097 592.160998,955.494505 C575.789777,957.189953 559.260531,954.693878 542.936717,956.938776 C538.148608,957.598116 533.297291,957.598116 528.49338,957.362637 C535.225176,952.637363 543.173752,950.251177 550.774676,947.346939 C554.187981,920.596546 555.199331,893.610675 558.043751,866.78179 C552.307503,864.536892 546.808289,861.130298 540.582168,860.549451 C532.933837,862.574568 527.48203,868.901099 524.495389,875.934066 C511.521669,898.979592 498.358322,921.930926 485.337196,944.960754 C492.132201,948.55573 498.879799,952.370487 504.821478,957.268446 C496.38303,957.849294 487.881372,958.006279 479.474529,956.907378 C463.308737,954.678179 446.905911,957.394035 430.740119,955.180534 C424.498196,954.395604 418.193063,954.458399 411.919535,954.238619 C417.466156,950.533752 423.297218,947.252747 429.444328,944.599686 C420.421193,923.767661 412.109163,902.637363 403.670715,881.569859 C401.663818,876.797488 400.273212,871.695447 397.428792,867.33124 C392.435253,863.092622 385.65605,862.276295 379.398324,861.412873 C379.271906,874.725275 378.529196,888.100471 380.425476,901.33438 C381.484233,914.66248 380.362267,928.053375 380.994361,941.412873 C385.403213,944.474097 389.701449,947.708006 393.90487,951.051805 C379.003266,953.469388 363.975243,955.965463 348.852406,956.091052 C350.227209,948.508634 352.107687,941.051805 354.067177,933.626374 C345.723543,944.22292 334.361662,953.563579 320.661035,955.839874 C311.037412,956.483516 300.418241,957.252747 291.948188,951.758242 C281.344819,945.588697 275.213512,934.00314 272.49551,922.44898 C270.030346,903.956044 271.689591,883.751962 282.798634,868.084772 C282.798634,868.084772 271.689591,883.751962 282.798634,868.084772 Z M324.501003,876.970173 C336.068315,882.919937 344.680589,893.594976 349.674127,905.400314 C345.881566,906.6719 342.136412,908.33595 338.138421,908.838305 C329.352321,907.770801 322.020036,900.125589 320.755849,891.507064 C319.94993,886.326531 322.667932,881.585557 324.501003,876.970173 C324.501003,876.970173 322.667932,881.585557 324.501003,876.970173 Z" id="avin" fill="#005DF8" sketch:type="MSShapeGroup"></path>
            <path d="M150.959731,856.326531 C167.820826,852.825746 185.15599,855.102041 202.080294,852.150706 C200.089199,858.11617 198.177116,864.097331 196.091208,870.047096 C207.042228,860.580848 220.142366,851.036107 235.470633,852.291994 C244.825617,852.166405 252.489751,858.131868 259.363768,863.689168 C263.725213,859.466248 268.16567,855.321821 272.922173,851.507064 C268.260484,872.88854 262.2872,893.971743 257.230452,915.274725 C250.040389,908.602826 242.107615,901.66405 232.183747,899.701727 C225.167509,899.167975 217.487573,898.44584 211.119231,902.040816 C200.29463,907.896389 195.553928,922.135008 199.599327,933.500785 C201.92227,941.868132 209.191346,947.362637 214.169082,954.144427 C198.54057,953.924647 183.054279,956.200942 167.457372,956.185243 C161.405077,956.436421 155.431793,957.425432 149.379498,957.598116 C153.077245,953.720565 157.280667,950.251177 160.425332,945.902669 C162.242601,935.77708 162.637659,925.431711 162.906299,915.180534 C163.348764,907.849294 164.47073,900.565149 164.375916,893.21821 C164.328509,883.437991 167.204535,873.720565 165.592696,863.971743 C161.168042,860.643642 155.74784,859.010989 150.959731,856.326531 C150.959731,856.326531 155.74784,859.010989 150.959731,856.326531 L150.959731,856.326531 L150.959731,856.326531 Z" id="r" fill="#005DF8" sketch:type="MSShapeGroup"></path>
            <path d="M57.4098927,811.836735 C70.0675651,809.827316 83.025482,809.042386 95.7779684,810.722135 C106.460349,812.291994 115.846937,818.006279 124.617235,823.956044 C126.845364,818.963893 129.18411,814.050235 131.665077,809.199372 C135.757883,827.362637 138.570699,845.77708 142.015608,864.081633 C136.137139,858.210361 130.448297,851.726845 122.641942,848.351648 C115.79953,845.494505 108.040582,843.579278 100.692495,845.604396 C89.8994988,848.006279 81.7770973,858.66562 82.1089464,869.623234 C82.8358539,883.736264 96.410062,895.651491 110.584759,895.007849 C124.332793,896.028257 136.95886,889.89011 148.842218,883.877551 C147.578031,897.33124 145.00225,910.596546 143.058563,923.971743 C141.62055,933.437991 140.277351,942.951334 137.843791,952.244898 C135.615662,943.987441 134.351475,935.510204 133.624567,927.017268 C125.612782,933.736264 118.549137,941.695447 109.383781,946.985871 C90.9740578,958.178964 67.3653654,962.99843 46.7275124,955.164835 C34.8757592,951.475667 25.9158337,942.511774 17.7776298,933.626374 C7.85376181,922.55887 2.78121142,908.11617 0,893.767661 L0,878.649922 C3.08145584,865.839874 4.89872467,851.397174 14.4907436,841.507064 C18.6941654,842.700157 22.5025288,844.992151 26.7533576,846.10675 C30.561721,844.678179 33.0584903,840.957614 33.8012002,837.095761 C35.2234106,831.88383 32.5370132,826.844584 31.0515935,821.978022 C34.1804563,825.588697 37.1987028,829.56044 41.5443457,831.77394 C46.569489,831.930926 52.748203,830.627943 55.5768215,826.075353 C57.3466833,821.55416 56.9832295,816.577708 57.4098927,811.836735 C57.4098927,811.836735 56.9832295,816.577708 57.4098927,811.836735 L57.4098927,811.836735 L57.4098927,811.836735 Z" id="C" fill="#005DF8" sketch:type="MSShapeGroup"></path>
            <path d="M294.697795,695.839874 C324.738039,695.321821 354.604457,690.973312 384.613096,690.863422 C378.260556,694.458399 371.765795,697.786499 365.065604,700.690738 C365.049802,706.059655 364.939185,711.44427 365.697698,716.78179 C367.214722,726.530612 366.408803,736.420722 366.756454,746.248038 C379.050673,731.350078 388.737506,714.536892 400.968515,699.607535 C408.759068,714.583987 414.321491,730.565149 421.069089,745.99686 C426.046825,732.040816 428.749025,717.44113 432.683807,703.186813 C427.358419,700.251177 422.380683,696.734694 417.750598,692.794349 C430.850736,691.491366 444.077292,693.359498 457.114221,691.287284 C471.273115,690.078493 485.511022,690.973312 499.701521,690.753532 C497.994868,692.370487 496.272414,693.987441 494.565761,695.604396 C511.411053,693.704867 528.256345,691.22449 545.228056,690.596546 C541.988576,697.00157 538.812307,703.437991 535.683444,709.89011 C547.408778,699.387755 561.899522,689.78022 578.38136,690.549451 C595.447885,689.481947 611.929723,703.563579 613.051689,720.565149 C613.39934,727.817896 613.46255,735.117739 612.846258,742.370487 C610.870966,757.268446 603.39646,770.659341 595.637513,783.312402 C601.753017,785.682889 607.868522,788.069074 613.889213,790.690738 C605.814218,794.615385 596.63306,791.868132 588.068193,793.186813 C578.033709,794.646782 567.888608,794.521193 557.790914,794.348509 C565.439245,785.620094 571.207099,773.767661 568.283666,762.009419 C566.292572,756.200942 561.978534,748.916797 554.725261,750.21978 C546.081382,749.843014 541.419692,758.44584 539.965877,765.729984 C537.611329,774.77237 542.88931,783.249608 547.203348,790.800628 C528.983253,791.726845 511.031797,795.761381 492.780097,796.012559 C497.473391,790.031397 503.904943,784.583987 505.342955,776.78179 C506.306898,767.708006 504.995304,758.540031 506.38591,749.481947 C507.902934,739.607535 506.607142,729.56044 507.997748,719.67033 C508.614039,714.850863 508.803667,709.984301 508.977493,705.133438 C504.379013,702.684458 499.906951,699.968603 495.055634,698.037677 C490.346537,695.792779 483.962393,699.403454 483.140671,704.474097 C476.156038,727.849294 469.092393,751.208791 462.012946,774.568289 C461.207026,777.676609 460.037653,780.847724 460.369503,784.11303 C465.331437,787.912088 471.36793,790.486656 475.049874,795.792779 C470.340778,795.824176 465.647483,795.541601 460.985794,794.913658 C448.754784,793.422292 436.381554,795.321821 424.166347,793.642072 C415.380247,792.417582 406.483531,792.825746 397.650024,792.621664 C401.695423,789.513344 405.86724,786.577708 409.944243,783.500785 C401.869249,774.803768 393.051544,766.813187 385.087166,758.021978 C381.373617,764.395604 377.359823,770.596546 373.203808,776.703297 C378.08673,781.302983 382.74842,786.122449 387.489121,790.863422 C364.465115,793.045526 341.362098,793.956044 318.306487,795.745683 C323.157805,790.832025 328.988867,787.127159 334.740918,783.359498 C328.230355,763.532182 322.746944,743.375196 316.29959,723.516484 C314.182077,717.22135 313.218134,710.470958 310.026062,704.599686 C305.648815,701.66405 300.323427,700.643642 295.740749,698.084772 C295.487912,697.519623 294.966434,696.405024 294.697795,695.839874 C294.697795,695.839874 294.966434,696.405024 294.697795,695.839874 L294.697795,695.839874 L294.697795,695.839874 Z" id="wn" fill="#005DF8" sketch:type="MSShapeGroup"></path>
            <g id="O" transform="translate(123.258234, 643.642072)" sketch:type="MSShapeGroup">
                <path d="M24.4462163,25.855573 C42.0026135,8.49293564 66.9861093,-0.800627943 91.685163,0.156985871 C125.344142,0.423861852 158.213004,21.2401884 171.439561,52.1978022 C171.708201,52.7629513 172.229678,53.877551 172.482515,54.4427002 C177.144205,66.8759812 179.862207,80.3453689 177.58667,93.5949765 C174.647436,108.728414 168.563536,123.532182 158.228807,135.196232 C141.130677,155.164835 114.788181,166.875981 88.4140791,166.248038 C63.6834207,166.436421 39.0159716,156.200942 22.139075,138.178964 C8.20141324,123.469388 -0.173825714,103.485086 0.126418701,83.1868132 C-0.189628052,61.7896389 9.14955349,40.7849294 24.4462163,25.855573 C24.4462163,25.855573 9.14955349,40.7849294 24.4462163,25.855573 L24.4462163,25.855573 L24.4462163,25.855573 Z" id="Shape" fill="#FF0000"></path>
                <path d="M62.0873846,9.30926217 C71.8848339,5.63579278 82.3301791,4.99215071 92.7123149,5.19623234 C93.5814435,12.6373626 94.2925487,20.2511774 97.4530162,27.1585557 C102.399148,38.5400314 108.467246,50.0313972 108.625269,62.7158556 C108.957118,71.0675039 101.909275,77.4254317 94.7508165,80.4395604 C94.2293394,80.2354788 93.1705827,79.8273155 92.6491056,79.6232339 C97.674249,74.0816327 102.019892,66.2951334 98.8594243,58.744113 C91.1004765,39.1993721 70.7154609,28.288854 62.0873846,9.30926217 C62.0873846,9.30926217 70.7154609,28.288854 62.0873846,9.30926217 L62.0873846,9.30926217 L62.0873846,9.30926217 Z" id="Shape" fill="#FFFFFF"></path>
                <path d="M121.693802,23.5007849 C122.199477,19.6703297 124.206374,16.2951334 125.881422,12.88854 C134.825545,17.299843 143.090167,22.9356358 150.217022,29.8901099 C145.428913,35.66719 140.182537,41.255887 137.085279,48.1946625 C131.333228,60.5808477 126.671539,74.5211931 115.578298,83.3751962 C109.178351,88.3673469 100.708298,86.4207221 93.4076178,85.0235479 C95.4935264,84.0816327 97.5952373,83.1868132 99.7127505,82.3233909 C105.148755,80.2354788 111.311666,77.9905808 113.855843,72.2762951 C121.014302,57.0643642 119.355056,39.733124 121.693802,23.5007849 C121.693802,23.5007849 119.355056,39.733124 121.693802,23.5007849 L121.693802,23.5007849 L121.693802,23.5007849 Z" id="Shape" fill="#FFFFFF"></path>
                <path d="M14.1588945,48.3359498 C18.7573748,39.3563579 25.4101589,31.711146 33.0110833,25.1177394 C39.1107857,29.7017268 45.163081,34.5839874 52.3689469,37.3940345 C65.3110615,42.6059655 79.5963747,46.7032967 89.4886381,57.0800628 C95.1300726,62.9984301 92.759722,71.6797488 91.73257,78.8383046 C90.8476391,77.1742543 90.0575222,75.4631083 89.29901,73.7519623 C87.0234734,67.9591837 84.289669,61.4756672 78.0003386,59.0266876 C57.7891488,50.2040816 34.5597124,56.2951334 14.1588945,48.3359498 C14.1588945,48.3359498 34.5597124,56.2951334 14.1588945,48.3359498 L14.1588945,48.3359498 L14.1588945,48.3359498 Z" id="Shape" fill="#FFFFFF"></path>
                <path d="M113.207947,92.0251177 C134.430486,85.5729984 147.088159,64.8037677 167.647,57.0643642 C171.234131,66.310832 172.529922,76.1695447 172.656341,86.0282575 C164.723568,86.8602826 156.601166,87.1428571 149.095056,90.0313972 C135.694673,94.9921507 122.104663,101.648352 107.455896,100.879121 C99.1596687,100.141287 93.7394669,93.1868132 90.1839409,86.4050235 L91.2268952,85.9811617 C97.7848653,90 105.164557,94.3642072 113.207947,92.0251177 C113.207947,92.0251177 105.164557,94.3642072 113.207947,92.0251177 L113.207947,92.0251177 L113.207947,92.0251177 Z" id="Shape" fill="#FFFFFF"></path>
                <path d="M28.175568,75.0706436 C41.5443457,70.1412873 54.9605303,63.422292 69.5776926,63.9717425 C77.9529316,64.4427002 83.8472035,71.2087912 87.3553225,78.1632653 L86.2807635,78.7127159 C79.6279794,74.6310832 71.9480433,70.3296703 63.8730487,73.0612245 C48.955642,78.1475667 37.814994,89.8744113 25.504973,99.1365777 C20.874888,103.155416 15.2650582,105.745683 9.48140258,107.692308 C6.30513272,98.3987441 4.85131766,88.6342229 5.73624856,78.822606 C13.2739636,78.0533752 21.0171091,77.7864992 28.175568,75.0706436 C28.175568,75.0706436 21.0171091,77.7864992 28.175568,75.0706436 L28.175568,75.0706436 L28.175568,75.0706436 Z" id="Shape" fill="#FFFFFF"></path>
                <path d="M61.8187449,81.8053375 C68.1712846,76.6405024 76.6887446,78.3202512 84.0052269,79.8744113 C81.808702,80.9419152 79.5805724,81.9152276 77.3208381,82.8571429 C71.8848339,84.7723705 66.1643877,87.5353218 63.651816,93.0612245 C54.6286812,111.946625 61.028628,134.207221 52.0687025,153.061224 C42.2870555,149.277865 33.7695955,142.99843 26.7849623,135.259027 C32.2367688,129.466248 37.8465987,123.532182 40.9754615,116.122449 C46.4904773,103.987441 51.2153763,90.5651491 61.8187449,81.8053375 C61.8187449,81.8053375 51.2153763,90.5651491 61.8187449,81.8053375 L61.8187449,81.8053375 L61.8187449,81.8053375 Z" id="Shape" fill="#FFFFFF"></path>
                <path d="M69.1036225,100.470958 C69.7199137,92.0094192 77.6368848,87.2684458 84.289669,83.5478807 C84.337076,84.1287284 84.4476924,85.2747253 84.4950994,85.855573 C79.8650144,91.711146 75.629988,99.2307692 79.0590952,106.766091 C86.3597752,123.061224 101.340391,133.971743 111.801539,148.069074 C113.871645,150.910518 114.566948,154.411303 115.562495,157.708006 C105.622825,160.361068 95.335503,161.585557 85.0481812,160.910518 C84.5425064,153.987441 84.1316456,146.89168 81.4136435,140.408163 C76.2462791,127.519623 68.61375,114.77237 69.1036225,100.470958 C69.1036225,100.470958 68.61375,114.77237 69.1036225,100.470958 L69.1036225,100.470958 L69.1036225,100.470958 Z" id="Shape" fill="#FFFFFF"></path>
                <path d="M84.8743555,88.8697017 C85.9805191,88.3202512 87.1182874,87.7864992 88.2402534,87.2684458 C89.0619749,94.5054945 92.0328144,102.213501 99.0964593,105.525903 C119.702708,114.803768 143.453621,108.712716 164.375916,116.640502 C159.856448,125.792779 153.503908,133.940345 145.618541,140.470958 C139.107978,135.463108 132.597415,130.188383 124.806863,127.268446 C112.180795,122.244898 98.4485635,118.037677 88.5879048,108.257457 C83.4047381,103.092622 84.7479368,95.4317111 84.8743555,88.8697017 C84.8743555,88.8697017 84.7479368,95.4317111 84.8743555,88.8697017 L84.8743555,88.8697017 L84.8743555,88.8697017 Z" id="Shape" fill="#FFFFFF"></path>
            </g>
            <g id="Basket" transform="translate(589.427194, 450.549451)" sketch:type="MSShapeGroup">
                <path d="M35.8080971,32.3704867 C52.5269703,11.7268446 79.2487233,-0.690737834 105.986279,0.470957614 C127.793505,0.973312402 149.079253,11.3657771 162.795682,28.2417582 C179.530358,48.3045526 185.203397,74.9764521 185.566851,100.470958 C190.133727,100.737834 194.700602,100.973312 199.267478,101.271586 C197.070953,112.904239 193.120368,124.11303 190.086319,135.541601 C181.284417,166.640502 172.498318,197.739403 163.712218,228.822606 C147.593834,229.529042 131.475449,228.99529 115.357065,229.136578 C90.7212204,228.979592 66.085376,229.372057 41.4495316,228.948195 C27.9227306,186.279435 13.4161847,143.908948 0.173825714,101.145997 C4.78810831,100.989011 9.4023909,100.847724 14.0324758,100.706436 C13.7480337,76.4207221 20.0215618,51.3971743 35.8080971,32.3704867 C35.8080971,32.3704867 20.0215618,51.3971743 35.8080971,32.3704867 Z M52.9220288,35.2747253 C66.2908064,20.8791209 85.8382981,11.2715856 105.844058,12.88854 C124.348595,13.6263736 141.699562,23.6577708 152.682186,38.288854 C166.066766,56.1695447 170.538828,78.9324961 171.218328,100.800628 C163.080124,101.083203 154.926118,101.051805 146.787914,100.847724 C150.896522,86.3579278 156.174503,72.2291994 160.409529,57.7708006 C151.591825,54.2386185 142.537086,51.3029827 133.355927,48.9324961 C127.335237,65.9654631 122.62614,83.4536892 116.06817,100.282575 C115.420274,100.502355 114.140285,100.973312 113.508191,101.208791 C113.113133,83.3437991 113.523994,65.4788069 113.286959,47.6295133 C104.137405,47.4725275 94.9720492,47.4725275 85.8066934,47.6295133 C85.553856,65.4788069 86.0437285,83.3437991 85.553856,101.193093 C83.7523895,100.565149 82.093144,99.7174254 80.5761196,98.6342229 C76.7677563,81.899529 71.6319965,65.4788069 67.1441326,48.9167975 C57.9471721,50.8634223 48.8766303,53.3437991 39.9641119,56.3422292 C44.0727197,71.1616954 48.3709555,85.9340659 52.3057376,100.816327 C44.2465454,101.130298 36.1873532,101.161695 28.128161,100.879121 C27.8595213,76.9858713 36.6614233,52.9513344 52.9220288,35.2747253 C52.9220288,35.2747253 36.6614233,52.9513344 52.9220288,35.2747253 Z" id="Shape" fill="#8C6239"></path>
                <path d="M133.355927,48.9324961 C142.537086,51.3029827 151.591825,54.2386185 160.409529,57.7708006 C156.174503,72.2291994 150.896522,86.3579278 146.787914,100.847724 C136.563802,101.711146 126.150061,102.700157 116.06817,100.282575 C122.62614,83.4536892 127.335237,65.9654631 133.355927,48.9324961 C133.355927,48.9324961 127.335237,65.9654631 133.355927,48.9324961 L133.355927,48.9324961 L133.355927,48.9324961 Z" id="Shape" fill="#8B0463"></path>
                <path d="M85.8066934,47.6295133 C94.9720492,47.4725275 104.137405,47.4725275 113.286959,47.6295133 C113.523994,65.4788069 113.113133,83.3437991 113.508191,101.208791 C104.200614,100.784929 94.8614329,100.910518 85.553856,101.193093 C86.0437285,83.3437991 85.553856,65.4788069 85.8066934,47.6295133 C85.8066934,47.6295133 85.553856,65.4788069 85.8066934,47.6295133 L85.8066934,47.6295133 L85.8066934,47.6295133 Z" id="Shape" fill="#F23E0A"></path>
                <path d="M39.9641119,56.3422292 C48.8766303,53.3437991 57.9471721,50.8634223 67.1441326,48.9167975 C71.6319965,65.4788069 76.7677563,81.899529 80.5761196,98.6342229 C80.7657477,99.3092622 81.1608061,100.659341 81.3662365,101.33438 C71.6794035,101.836735 61.9609659,101.836735 52.3057376,100.816327 C48.3709555,85.9340659 44.0727197,71.1616954 39.9641119,56.3422292 C39.9641119,56.3422292 44.0727197,71.1616954 39.9641119,56.3422292 L39.9641119,56.3422292 L39.9641119,56.3422292 Z" id="Shape" fill="#807E00"></path>
            </g>
            <path d="M470.309173,513.89325 C487.3915,511.1146 504.742467,512.621664 521.824794,510.094192 C520.323572,516.028257 518.427291,521.868132 516.53101,527.708006 C527.229193,518.602826 539.792051,509.340659 554.630447,510.094192 C563.969628,509.952904 572.360669,514.66248 579.076663,520.753532 C583.675143,517.158556 588.38424,513.704867 592.887906,509.968603 C588.795101,531.397174 582.331944,552.291994 577.559638,573.563579 C570.87525,566.954474 563.669384,559.89011 554.077365,557.927786 C545.370277,556.405024 535.177769,556.122449 528.161531,562.370487 C520.228757,569.466248 515.693487,581.538462 519.944315,591.742543 C522.646515,599.952904 530.057812,605.117739 534.972339,611.899529 C519.343827,611.66405 503.857536,614.065934 488.244826,613.89325 C482.145124,614.00314 476.108631,615.023548 470.024731,615.274725 C473.248408,610.863422 477.38862,607.268446 481.813275,604.065934 C482.224135,582.684458 484.6893,561.397174 485.352998,540.015699 C485.70065,533.908948 487.233476,527.817896 486.553976,521.679749 C481.592042,518.241758 475.713572,516.499215 470.309173,513.89325 C470.309173,513.89325 475.713572,516.499215 470.309173,513.89325 L470.309173,513.89325 L470.309173,513.89325 Z" id="r" fill="#005DF8" sketch:type="MSShapeGroup"></path>
            <path d="M344.870217,515.620094 C364.860174,514.254317 384.644701,510.376766 404.682065,510.094192 C397.428792,518.398744 390.570577,528.540031 391.676741,540.078493 C390.839217,546.860283 395.279674,553.547881 401.774435,555.620094 C407.874137,556.530612 414.842968,554.285714 418.224668,548.901099 C421.938217,543.751962 422.886358,537.064364 421.653775,530.941915 C420.152553,525.714286 416.628632,521.428571 413.64199,516.985871 C426.28386,514.913658 439.020544,513.390895 451.678217,511.397174 C457.24064,510.423862 462.913679,510.10989 468.570916,510.376766 C461.396654,515.525903 453.084625,518.759812 445.657526,523.516484 C457.24064,531.821036 466.247972,544.505495 467.71759,558.8854 C468.728939,571.22449 465.726495,584.505495 457.098419,593.814757 C445.562712,606.153846 429.302107,613.971743 412.377803,615.22763 C399.656921,615.839874 386.288144,616.310832 374.483797,610.706436 C361.683904,604.819466 349.879558,593.579278 347.856859,579.152276 C347.114149,568.351648 346.734893,557.00157 351.396582,546.923077 C354.936306,537.189953 362.315997,529.733124 368.494711,521.648352 C360.672554,519.56044 351.886455,520.062794 344.870217,515.620094 C344.870217,515.620094 351.886455,520.062794 344.870217,515.620094 L344.870217,515.620094 L344.870217,515.620094 Z" id="u" fill="#005DF8" sketch:type="MSShapeGroup"></path>
            <path d="M275.561164,509.215071 C294.239527,506.813187 315.098613,512.370487 327.535052,527.064364 C336.03671,536.546311 339.118166,549.638932 339.813469,562.009419 C340.034701,588.398744 317.57958,611.491366 291.726955,614.803768 C273.633279,617.425432 253.232461,613.202512 240.464172,599.419152 C219.510272,579.576138 221.627785,542.605965 242.423662,523.422292 C251.683832,515.431711 263.488178,510.847724 275.561164,509.215071 C275.561164,509.215071 263.488178,510.847724 275.561164,509.215071 Z M249.471504,547.692308 C257.040824,536.483516 269.335043,528.932496 282.751227,526.907378 C283.936403,531.726845 285.722067,537.048666 283.019867,541.726845 C277.805096,554.583987 259.332163,555.99686 249.471504,547.692308 C249.471504,547.692308 259.332163,555.99686 249.471504,547.692308 Z" id="o" fill="#005DF8" sketch:type="MSShapeGroup"></path>
            <path d="M93.8974903,473.249608 C107.598117,472.433281 121.251337,469.968603 134.99937,471.208791 C129.610773,475.149137 123.953536,478.681319 118.2963,482.229199 C123.116013,494.866562 129.263122,506.954474 134.541103,519.403454 C137.037872,525.525903 139.692665,531.616954 142.884737,537.425432 C149.426905,521.585557 156.632771,506.012559 162.98531,490.094192 C157.23326,487.268446 151.576023,484.238619 146.203228,480.753532 C157.64412,480.10989 169.195629,479.843014 180.573312,481.412873 C192.282844,482.762951 204.134598,481.067504 215.828328,482.637363 C223.113205,483.642072 230.477095,483.469388 237.793577,483.924647 C230.034629,489.764521 219.857924,491.821036 212.968104,498.806907 C198.003291,515.871272 182.912058,532.825746 167.789221,549.748823 C163.807032,554.160126 158.8609,558.163265 156.711782,563.846154 C157.043631,570.910518 159.303366,577.708006 160.535948,584.646782 C162.226798,591.852433 163.064322,599.309262 165.592696,606.279435 C173.0514,612.213501 183.433535,613.312402 190.56039,619.921507 C179.230114,618.854003 167.884035,618.461538 156.522154,618.22606 C144.828424,616.436421 132.945067,617.535322 121.251337,615.949765 C112.68647,614.976452 104.026789,615.808477 95.477724,614.678179 C86.5336009,613.406593 77.4788615,614.097331 68.5031337,613.343799 C75.4245576,607.237049 84.3528783,604.270016 92.6333033,600.502355 C95.9043871,586.514914 100.7241,572.88854 103.679137,558.854003 C102.162113,554.693878 99.0174477,551.397174 96.5206783,547.786499 C86.4703916,533.689168 76.6571399,519.419152 66.4330274,505.44741 C61.7555355,499.120879 58.0577885,491.962323 52.3373423,486.483516 C45.9848025,482.684458 37.909808,482.653061 32.0471407,477.833595 C52.6849937,476.562009 73.2754396,474.788069 93.8974903,473.249608 C93.8974903,473.249608 73.2754396,474.788069 93.8974903,473.249608 L93.8974903,473.249608 L93.8974903,473.249608 Z" id="Y" fill="#005DF8" sketch:type="MSShapeGroup"></path>
            <path d="M650.787671,302.794349 C671.567745,303.532182 692.253005,306.059655 713.001474,307.362637 C709.066692,309.576138 705.068701,311.648352 701.023302,313.657771 C699.838127,333.092622 700.960093,352.590267 700.075162,372.056515 C700.343802,391.459969 699.411464,410.847724 699.58529,430.235479 C699.237638,438.44584 707.138807,443.186813 711.437043,449.215071 C695.476682,449.042386 679.595333,447.362637 663.682379,446.499215 C649.728914,445.572998 635.206566,445.729984 622.169638,440.031397 C607.963336,434.050235 595.62171,421.852433 592.682476,406.436421 C590.296323,392.511774 592.255812,377.409733 600.156981,365.44741 C606.193474,356.248038 615.279818,348.398744 626.341455,346.122449 C636.628777,344.191523 647.73782,345.274725 656.966385,350.408163 C663.919414,354.081633 669.197394,359.984301 674.585992,365.541601 C671.33071,349.968603 668.265057,334.348509 665.167798,318.744113 C664.140646,310.910518 655.970838,307.645212 650.787671,302.794349 C650.787671,302.794349 655.970838,307.645212 650.787671,302.794349 Z M642.523049,367.817896 C643.692421,365.494505 646.568447,368.11617 648.369913,368.33595 C658.198967,373.014129 666.479392,381.459969 670.698617,391.459969 C672.500083,394.018838 669.10258,395.007849 667.41173,396.153846 C658.325386,400.910518 646.473633,396.279435 641.938362,387.409733 C638.74629,381.459969 638.319627,373.390895 642.523049,367.817896 C642.523049,367.817896 638.319627,373.390895 642.523049,367.817896 Z" id="d" fill="#005DF8" sketch:type="MSShapeGroup"></path>
            <path d="M508.645644,322.715856 C533.866175,315.77708 558.897078,308.11617 584.323039,302.009419 C579.819373,340.141287 574.320159,378.147567 569.484644,416.232339 C568.741934,422.825746 567.240712,429.403454 567.414538,436.075353 C573.229798,440.816327 581.447014,441.77394 588.178809,445.102041 C561.88372,446.797488 535.541223,447.817896 509.214528,449.105181 C510.03625,447.786499 510.857971,446.452119 511.695495,445.133438 C493.507005,445.463108 475.334316,446.326531 457.161628,446.703297 C444.646177,446.923077 432.146527,448.194662 419.646878,447.362637 C425.841395,444.22292 432.209737,441.428571 438.736102,439.042386 C441.4225,412.025118 443.176559,384.913658 445.610119,357.880691 C437.471915,354.081633 428.907048,351.287284 420.958472,347.11146 C437.598334,345.745683 454.317207,345.635793 470.988673,344.850863 C485.321394,344.678179 499.638312,343.171115 513.971032,343.799058 C504.600246,348.084772 494.518354,350.596546 485.084359,354.756672 C489.034943,382.386185 493.032934,410.015699 496.825495,437.676609 C503.178035,439.874411 509.435761,443.202512 516.278173,443.3281 C521.240107,442.072214 525.332913,438.744113 529.789172,436.342229 C529.962997,399.858713 528.445973,363.390895 528.69881,326.907378 C521.967015,325.729984 515.282626,324.317111 508.645644,322.715856 C508.645644,322.715856 515.282626,324.317111 508.645644,322.715856 Z M441.975581,330.549451 C463.877621,328.320251 485.621638,324.631083 507.049608,319.607535 C506.306898,323.186813 505.706409,327.33124 502.166686,329.309262 C492.606271,335.745683 480.533285,336.452119 469.34523,336.467818 C460.006049,336.232339 449.87675,336.232339 441.975581,330.549451 C441.975581,330.549451 449.87675,336.232339 441.975581,330.549451 Z" id="il" fill="#005DF8" sketch:type="MSShapeGroup"></path>
            <path d="M298.284925,350.361068 C316.552428,347.158556 335.104372,345.855573 353.529898,343.799058 C346.529462,352.762951 339.845073,363.3281 341.014446,375.196232 C341.298888,382.197802 346.276625,389.795918 353.988166,389.78022 C363.595987,390.941915 372.33468,382.967033 373.140599,373.626374 C374.641821,365.133438 369.885317,357.472527 365.365849,350.737834 C382.764222,348.963893 399.957166,345.525903 417.387144,343.971743 C410.149673,348.602826 402.453935,352.433281 394.932022,356.577708 C399.672724,361.240188 404.682065,365.698587 408.759068,370.973312 C420.278972,386.028257 420.610821,408.602826 409.154126,423.783359 C393.478207,444.238619 365.460663,451.522763 340.650993,447.912088 C324.07434,445.635793 307.813735,435.682889 301.034532,420.062794 C295.645935,406.703297 297.431599,391.22449 303.515499,378.398744 C307.608305,369.513344 314.197879,362.119309 320.708442,354.913658 C313.233937,353.422292 305.727826,352.025118 298.284925,350.361068 C298.284925,350.361068 305.727826,352.025118 298.284925,350.361068 L298.284925,350.361068 L298.284925,350.361068 Z" id="u" fill="#005DF8" sketch:type="MSShapeGroup"></path>
            <path d="M127.22462,303.265306 C149.12666,303.343799 170.981293,305.431711 192.883333,306.232339 C212.778476,307.723705 232.942259,307.017268 252.537158,311.130298 C260.754373,313.014129 270.188369,316.169545 273.838709,324.458399 C277.252014,333.045526 275.513757,343.673469 268.939984,350.345369 C263.108922,356.436421 255.081334,359.56044 247.701643,363.312402 C259.664012,365.164835 272.779952,367.409733 281.439633,376.624804 C289.388209,384.693878 289.656849,397.237049 287.049463,407.582418 C284.426275,417.755102 276.367083,425.66719 266.980494,430.015699 C250.166807,437.896389 231.425235,440.21978 213.126128,442.103611 C186.277956,444.709576 159.477191,447.880691 132.613217,450.266876 C145.602739,443.375196 159.271761,437.864992 172.435108,431.33438 C166.604046,392.747253 159.87225,354.285714 153.345884,315.808477 C144.670401,311.55416 135.615662,308.053375 127.22462,303.265306 C127.22462,303.265306 135.615662,308.053375 127.22462,303.265306 Z M199.409699,324.882261 C207.042228,325.259027 215.401664,325.792779 221.469762,330.973312 C224.883067,333.736264 226.842557,339.403454 223.697892,343.076923 C218.309295,349.120879 209.823439,350.455259 202.222515,351.805338 C200.863514,342.872841 200.02599,333.89325 199.409699,324.882261 C199.409699,324.882261 200.02599,333.89325 199.409699,324.882261 Z M198.967233,383.233909 C205.809645,381.695447 213.505384,378.759812 220.205575,382.323391 C225.293928,385.463108 223.919124,392.605965 220.600633,396.546311 C214.026861,404.866562 204.89311,410.816327 195.474917,415.572998 C196.043801,404.725275 197.434406,393.971743 198.967233,383.233909 C198.967233,383.233909 197.434406,393.971743 198.967233,383.233909 Z" id="B" fill="#005DF8" sketch:type="MSShapeGroup"></path>
            <g id="Hat" transform="translate(146.961740, 0.000000)" sketch:type="MSShapeGroup">
                <path d="M203.328678,14.7723705 C228.359581,6.04395604 255.002323,3.73626374 281.218401,1.02040816 C306.043873,0.549450549 330.853543,3.21821036 355.362969,6.98587127 C364.322894,8.19466248 373.298622,11.6483516 382.400769,9.56043956 C392.624881,7.17425432 403.323064,6.04395604 413.736804,7.8021978 C422.270066,9.29356358 430.155433,15.4631083 432.604795,23.8461538 C434.358855,29.6546311 430.329259,36.9073783 435.322797,41.6483516 C441.659535,48.4301413 449.149843,54.0345369 455.581394,60.7378336 C471.952616,78.6499215 491.452701,95.3689168 499.195846,119.120879 C501.25015,127.378336 502.656558,135.88697 502.925198,144.411303 C500.902499,167.472527 495.861553,190.204082 494.549959,213.3281 C498.042275,220.722135 506.622945,225.321821 507.760713,233.940345 C508.28219,242.731554 503.067419,250.722135 497.030926,256.703297 C489.730246,263.720565 481.465623,269.748823 472.758535,274.897959 C437.266485,294.379906 399.261863,309.277865 360.087868,319.607535 C338.659898,324.631083 316.915881,328.320251 295.013841,330.549451 C275.719187,331.978022 256.234905,332.919937 236.971855,330.533752 C219.447063,329.591837 202.238317,325.99686 184.839943,323.908948 C174.252377,322.841444 165.95615,315.368917 155.842654,312.762951 C148.779009,311.1146 142.331655,307.849294 135.789487,304.835165 C118.675556,299.481947 103.63173,289.466248 87.4659388,281.946625 C74.69765,274.22292 61.9767682,266.420722 49.0346537,258.963893 C36.787842,252.197802 25.3311472,244.065934 14.696174,235.007849 C4.64588727,226.185243 -1.99109454,211.852433 2.21232727,198.587127 C7.36388934,182.025118 21.0013067,169.858713 35.1760036,160.627943 C41.749776,156.562009 47.6282457,151.240188 55.0237397,148.571429 C62.4508384,145.604396 70.5258329,143.924647 77.2892334,139.513344 C82.0299347,135.494505 84.2738666,129.481947 87.2447061,124.207221 C96.4258643,107.535322 105.938872,91.0047096 117.063717,75.5416013 C137.417128,45.8869702 169.495874,25.9654631 203.328678,14.7723705 C203.328678,14.7723705 169.495874,25.9654631 203.328678,14.7723705 L203.328678,14.7723705 L203.328678,14.7723705 Z" id="Shape" fill="#020004"></path>
                <path d="M202.175108,31.711146 C228.470198,22.0408163 256.313917,15.8398744 284.45788,16.1067504 C304.115988,16.3579278 324.042736,15.0235479 343.432204,18.9638932 C332.560196,25.3689168 320.281779,29.0423862 309.725818,36.0596546 C283.699368,51.1930926 262.366212,73.1397174 245.141664,97.5196232 C230.698327,118.587127 212.604651,138.147567 205.556808,163.233909 C202.127701,173.720565 201.369189,184.992151 196.58108,195.054945 C193.768264,202.291994 189.865087,209.686028 190.433971,217.660911 C192.820124,224.976452 202.554364,225.416013 208.74888,223.202512 C210.487137,220.910518 211.324661,218.131868 212.241197,215.463108 C216.492026,201.22449 223.397647,187.755102 232.563003,176.028257 C245.031047,161.271586 259.016116,147.723705 274.486605,136.075353 C294.587178,120.627943 314.529728,104.521193 337.569537,93.5164835 C358.649855,82.4646782 383.175083,80.1412873 404.081576,68.6813187 C411.824721,64.599686 418.208866,58.55573 424.893255,53.0612245 C437.961788,64.2700157 449.971564,76.6562009 461.36505,89.544741 C470.024731,99.2150706 478.637005,109.686028 481.734263,122.55887 C486.17472,140.565149 483.930788,159.513344 480.059215,177.425432 C477.025166,176.766091 473.991118,176.138148 470.972871,175.541601 C473.943711,172.103611 477.246399,168.806907 479.269098,164.693878 C479.126877,157.739403 471.273115,153.21821 464.825762,154.505495 C459.294944,155.682889 454.080172,158.100471 449.086633,160.675039 C445.104444,162.44898 443.824455,168.22606 446.826899,171.44427 C449.687122,174.599686 453.732521,176.279435 457.477675,178.178964 C453.700916,180.204082 449.292064,181.821036 446.826899,185.510204 C445.07284,189.748823 447.458993,194.756672 451.583403,196.562009 C460.211479,201.083203 468.697334,193.594976 476.946155,191.475667 C476.724922,197.488226 477.135783,203.579278 476.045421,209.529042 C470.972871,215.510204 463.52997,218.854003 457.382861,223.610675 C431.324806,242.464678 403.765529,260.392465 372.445296,269.183673 C349.990174,274.960754 326.934563,278.728414 303.705127,279.026688 C288.455871,280.737834 273.127604,279.073783 257.941557,277.535322 C220.869273,272.951334 186.056723,258.524333 152.618977,242.590267 C135.015173,234.740973 117.221741,226.405024 102.699392,213.532182 C91.2743022,203.547881 85.8699027,187.582418 88.3350674,172.747253 C91.7167677,152.056515 102.667788,133.736264 113.745226,116.263736 C122.594535,102.55887 129.737192,87.6609105 140.561793,75.3061224 C156.917213,55.8241758 178.756043,41.4756672 202.175108,31.711146 C202.175108,31.711146 178.756043,41.4756672 202.175108,31.711146 L202.175108,31.711146 L202.175108,31.711146 Z" id="Shape" fill="#FBC000"></path>
                <path d="M372.445296,28.9010989 C376.39588,27.7080063 380.678314,25.9811617 384.834329,27.3783359 C393.193765,30.266876 400.873701,34.8822606 407.637102,40.5494505 C392.356241,59.3092622 366.93028,62.6059655 345.360089,70.188383 C319.396848,78.4929356 296.989134,94.3956044 275.292524,110.345369 C265.874331,116.907378 257.862546,125.321821 247.922875,131.130298 C253.058635,120.722135 260.706966,111.852433 267.486169,102.480377 C284.473682,79.7645212 305.222152,59.0894819 330.758729,46.043956 C344.317135,39.5918367 358.223192,33.7833595 372.445296,28.9010989 C372.445296,28.9010989 358.223192,33.7833595 372.445296,28.9010989 L372.445296,28.9010989 L372.445296,28.9010989 Z" id="Shape" fill="#FBC000"></path>
                <path d="M38.5577038,179.544741 C47.9442924,172.731554 57.1570552,165.259027 68.2028893,161.255887 C66.8280859,174.081633 65.3584685,187.660911 70.6680539,199.858713 C76.7835586,215.949765 90.4999877,227.535322 104.690487,236.593407 C126.766353,250.43956 151.244174,259.843014 174.995087,270.392465 C205.461994,284.254317 238.42567,292.66876 271.800207,295.431711 C319.981535,298.430141 369.758898,293.296703 413.973839,273.045526 C428.464583,265.949765 442.623477,258.084772 455.802627,248.77551 C466.137356,242.197802 475.634561,234.317111 486.569778,228.66562 C487.407302,232.810047 488.892722,237.503925 486.190522,241.33438 C479.948599,250.800628 469.866707,256.828885 460.258886,262.480377 C433.3159,277.00157 405.266751,289.748823 375.874403,298.508634 C365.776709,302.150706 355.520992,305.416013 344.917624,307.315542 C302.535754,316.577708 258.320813,322.025118 215.243641,314.097331 C189.896691,310.659341 165.529487,302.182104 142.173632,292.025118 C106.286523,274.756672 70.9208913,256.122449 37.862401,233.89325 C29.20272,228.11617 20.4640272,219.858713 20.0531665,208.822606 C20.5272366,196.593407 29.1237083,186.562009 38.5577038,179.544741 C38.5577038,179.544741 29.1237083,186.562009 38.5577038,179.544741 L38.5577038,179.544741 L38.5577038,179.544741 Z" id="Shape" fill="#FBC000"></path>
                <path d="M397.966071,167.566719 C404.603053,166.6719 412.362001,163.861852 418.177261,168.697017 C422.080438,171.255887 420.816251,176.405024 421.053286,180.32967 C424.292766,184.00314 431.040364,188.053375 427.232,193.594976 C422.191055,201.051805 412.851873,204.11303 404.38182,205.808477 C396.053988,206.923077 386.525179,207.613815 379.287708,202.574568 C374.673425,199.78022 375.684775,191.208791 381.136582,189.952904 C388.753308,188.084772 398.203106,191.899529 404.144785,185.259027 C395.737942,185.023548 386.983447,186.797488 378.845243,183.987441 C373.093192,181.789639 372.00283,173.861852 375.858601,169.450549 C383.143478,168.037677 390.665391,169.010989 397.966071,167.566719 C397.966071,167.566719 390.665391,169.010989 397.966071,167.566719 L397.966071,167.566719 L397.966071,167.566719 Z" id="Shape" fill="#020004"></path>
            </g>
        </g>
    </g>
</svg>